<svg width="96" height="96" viewBox="0 0 96 96" fill="none" xmlns="http://www.w3.org/2000/svg">
<path fill-rule="evenodd" clip-rule="evenodd" d="M36.2953 34.0531C36.3972 33.9462 36.5107 33.8509 36.6336 33.7689C40.078 31.4727 44.7677 31.1113 48.8833 31.3996C53.0764 31.6934 57.1048 32.6947 59.5735 33.5411C59.8293 33.6288 60.0647 33.7675 60.2654 33.9488C70.5224 43.2132 75.8008 54.4056 77.7393 63.9926C78.7076 68.7811 78.8525 73.2171 78.3378 76.8539C77.8366 80.3953 76.6564 83.5337 74.6272 85.2999C73.5408 86.2455 71.9878 86.9454 70.3044 87.49C68.5781 88.0486 66.5234 88.5031 64.2794 88.8635C59.7883 89.5849 54.3791 89.9547 48.9893 89.9718C43.5997 89.9889 38.1635 89.6535 33.6195 88.9404C31.3488 88.584 29.261 88.1273 27.4953 87.5564C25.7668 86.9976 24.1806 86.2778 23.0521 85.3083C19.7855 82.5018 18.7771 78.1523 18.918 73.6029C19.06 69.0173 20.3715 63.8249 22.2241 58.7704C25.9171 48.6945 31.9871 38.5732 36.2953 34.0531ZM58.9248 35.433C78.7477 53.3376 79.2499 78.625 73.3141 83.7913C67.0647 89.2307 30.9999 89.5 24.3555 83.7913C13.9556 74.8561 29.6167 43.959 37.7431 35.433C43.4981 31.5963 54.2622 33.8344 58.9248 35.433Z" fill="#4C153A"/>
<path fill-rule="evenodd" clip-rule="evenodd" d="M70.4853 21.2101C70.5125 21.1178 70.5329 21.0238 70.5465 20.9286C71.0095 17.6874 70.2431 15.2406 68.5596 13.7174C66.9636 12.2733 64.889 11.988 63.3785 12.2901L63.7707 14.2512C65.769 13.8516 69.3659 15.0506 68.5666 20.6458C67.2344 25.1752 63.2112 34.7136 57.7759 36.632C53.7794 35.1666 44.3475 33.115 38.5925 36.632C35.3952 34.9001 28.7609 30.7171 27.8018 27.8396C26.8426 24.962 30.3329 24.7755 32.198 25.042C33.5301 25.042 36.1146 24.0828 35.7949 20.2461C35.4751 16.4094 40.1911 16.516 42.589 17.0489C44.0544 17.3153 47.5447 17.0488 49.7828 13.8516C52.5804 9.85501 57.3763 13.4519 58.1756 14.2512C58.9749 15.0505 61.7725 14.6509 63.7707 14.2512L63.3785 12.2901C62.4093 12.4839 61.3265 12.6603 60.4284 12.7031C59.976 12.7246 59.6476 12.7079 59.4397 12.6727C59.4296 12.6709 59.4201 12.6692 59.4112 12.6676C58.7162 12.0367 57.1626 10.9007 55.3086 10.3389C54.2623 10.0218 52.9923 9.84882 51.6803 10.1744C50.321 10.5118 49.0994 11.3402 48.1443 12.7046C46.5024 15.0503 43.9506 15.2497 42.9772 15.0864C41.6225 14.791 39.5107 14.5788 37.6541 15.0773C36.6925 15.3355 35.6342 15.8297 34.8483 16.7721C34.0246 17.7599 33.6855 19.0173 33.8018 20.4122C33.9197 21.8276 33.5029 22.3864 33.253 22.619C32.9594 22.8924 32.567 23.0134 32.2958 23.0374C31.2248 22.9046 29.6021 22.8732 28.233 23.3912C27.4767 23.6774 26.5842 24.2149 26.0545 25.2146C25.5051 26.2515 25.5471 27.4003 25.9044 28.472C26.2912 29.6325 27.148 30.6989 28.0139 31.5831C28.92 32.5083 30.0282 33.4242 31.1633 34.2695C33.4357 35.9616 35.9785 37.4906 37.6399 38.3906C38.2668 38.7301 39.027 38.7103 39.6354 38.3385C41.9889 36.9003 45.2857 36.5136 48.7006 36.7585C52.0691 37 55.2426 37.8333 57.0874 38.5097C57.5241 38.6698 58.0029 38.6728 58.4416 38.518C61.8821 37.3036 64.5546 33.8701 66.4397 30.6219C68.3868 27.267 69.7834 23.5967 70.4853 21.2101ZM59.3087 12.6421C59.3084 12.6423 59.3137 12.6445 59.3257 12.648C59.315 12.6436 59.309 12.6419 59.3087 12.6421Z" fill="#4C153A"/>
<path d="M37.4755 33.5613C33.5601 35.0673 32 39.4143 32 41.1712C32.8785 40.1672 37.5047 37.552 46.5404 36.9496C55.5761 36.3472 62.743 38.7821 64.5 40.288C63.8976 37.2762 63.0461 34.6767 60.3197 33.5613C53.6935 30.8506 40.9684 32.2179 37.4755 33.5613Z" fill="#F9CA2E"/>
<path fill-rule="evenodd" clip-rule="evenodd" d="M31.2966 43.0435C30.5166 42.7504 30 42.0045 30 41.1713C30 39.8555 30.5312 37.9821 31.5458 36.258C32.5858 34.4904 34.2668 32.6527 36.7576 31.6947M37.4755 33.5614L36.7576 31.6947C38.8166 30.9028 43.1366 30.2159 47.6458 30.0426C52.1598 29.8691 57.3534 30.1871 61.077 31.7103C64.8679 33.2612 65.8634 36.9073 66.4611 39.8959C66.6284 40.7324 66.2467 41.5829 65.5106 42.014C64.7745 42.445 63.846 42.3618 63.1984 41.8066C63.0028 41.639 62.4599 41.3013 61.4705 40.8994C60.5231 40.5146 59.2839 40.118 57.8018 39.7775C54.8381 39.0965 50.9833 38.6579 46.6734 38.9452C42.3228 39.2353 39.0902 40.0063 36.8832 40.7936C35.7781 41.1878 34.9424 41.5817 34.3579 41.9128C33.7416 42.2621 33.5137 42.4801 33.5054 42.488C33.5053 42.4882 33.5052 42.4883 33.5052 42.4883C32.9565 43.1153 32.0766 43.3365 31.2966 43.0435M37.4755 33.5614C35.1031 34.4739 33.5954 36.4294 32.7755 38.2198C32.2423 39.3843 32 40.4789 32 41.1713C32.3083 40.8189 33.0783 40.2681 34.3385 39.6754C36.669 38.5795 40.676 37.3406 46.5404 36.9497C53.2666 36.5013 58.9573 37.7359 62.1516 39.0175C63.2484 39.4576 64.0509 39.9032 64.5 40.2881C64.3062 39.3196 64.0868 38.3937 63.7875 37.5461C63.1561 35.7579 62.1694 34.3181 60.3197 33.5614C53.6935 30.8507 40.9684 32.218 37.4755 33.5614Z" fill="#594502"/>
<path fill-rule="evenodd" clip-rule="evenodd" d="M32.3511 39.3063C32.1119 40.0441 32 40.7006 32 41.1712C32.8785 40.1672 37.5047 37.552 46.5404 36.9496C47.015 36.9179 47.4845 36.8947 47.9484 36.8792C46.5962 36.834 45.1799 36.8518 43.7143 36.9495C38.5011 37.2971 34.7557 38.3147 32.3511 39.3063ZM61.3136 38.7031C60.7029 36.3858 59.7277 34.4753 57.4936 33.5613C55.0388 32.5571 51.747 32.1125 48.3976 32.0191C52.6526 31.9066 57.1736 32.2743 60.3197 33.5613C63.0461 34.6767 63.8976 37.2762 64.5 40.288C63.9433 39.8109 62.8437 39.2406 61.3136 38.7031Z" fill="#BC9205"/>
<path fill-rule="evenodd" clip-rule="evenodd" d="M48.4852 35.2827C44.1084 35.2827 39.322 36.5071 37.4971 37.1154C36.9732 37.2901 36.4069 37.0069 36.2322 36.483C36.0576 35.959 36.3407 35.3927 36.8647 35.2181C38.8079 34.5703 43.8186 33.2827 48.4852 33.2827C49.0375 33.2827 49.4852 33.7304 49.4852 34.2827C49.4852 34.835 49.0375 35.2827 48.4852 35.2827Z" fill="#FCE392"/>
</svg>
