<svg width="96" height="96" viewBox="0 0 96 96" fill="none" xmlns="http://www.w3.org/2000/svg">
<path d="M24.3555 83.7912C13.9556 74.856 29.6167 43.9589 37.7431 35.4329C43.4981 31.5962 54.2623 33.8343 58.9249 35.4329C78.7478 53.3375 79.25 78.6249 73.3142 83.7912C67.0648 89.2306 30.9999 89.4999 24.3555 83.7912Z" fill="#D15CAB"/>
<path fill-rule="evenodd" clip-rule="evenodd" d="M36.2953 34.0531C36.3972 33.9462 36.5107 33.8509 36.6336 33.7689C40.078 31.4727 44.7677 31.1113 48.8833 31.3996C53.0764 31.6934 57.1048 32.6947 59.5735 33.5411C59.8293 33.6288 60.0647 33.7675 60.2654 33.9488C70.5224 43.2132 75.8008 54.4056 77.7393 63.9926C78.7076 68.7811 78.8525 73.2171 78.3378 76.8539C77.8366 80.3953 76.6564 83.5337 74.6272 85.2999C73.5408 86.2455 71.9878 86.9454 70.3044 87.49C68.5781 88.0486 66.5234 88.5031 64.2794 88.8635C59.7883 89.5849 54.3791 89.9547 48.9893 89.9718C43.5997 89.9889 38.1635 89.6535 33.6195 88.9404C31.3488 88.584 29.261 88.1273 27.4953 87.5564C25.7668 86.9976 24.1806 86.2778 23.0521 85.3083C19.7855 82.5018 18.7771 78.1523 18.918 73.6029C19.06 69.0173 20.3715 63.8249 22.2241 58.7704C25.9171 48.6945 31.9871 38.5732 36.2953 34.0531ZM58.9248 35.433C78.7477 53.3376 79.2499 78.625 73.3141 83.7913C67.0647 89.2307 30.9999 89.5 24.3555 83.7913C13.9556 74.8561 29.6167 43.959 37.7431 35.433C43.4981 31.5963 54.2622 33.8344 58.9248 35.433Z" fill="#4C153A"/>
<path d="M20.9535 72.8754C21.1797 76.1861 22.2163 78.9533 24.3556 80.7913C31 86.5 67.0648 86.2307 73.3143 80.7913C75.1613 79.1837 76.385 75.6278 76.5971 70.9524C76.8591 77.0929 75.5388 81.8552 73.3143 83.7913C67.0648 89.2307 31 89.5 24.3556 83.7913C21.5975 81.4217 20.6723 77.5074 20.9535 72.8754Z" fill="#C33796"/>
<path d="M63.4153 86.9742C68.039 86.2732 71.6871 85.2075 73.3142 83.7913C79.2499 78.625 78.7477 53.3376 58.9248 35.433C56.4617 34.5885 52.2959 33.5656 48.0654 33.354C49.9706 33.8545 51.6448 34.4223 52.8886 34.9222C72.5299 54.6069 71.6862 80.9234 65.2362 85.9739C64.7683 86.3402 64.1546 86.6734 63.4153 86.9742Z" fill="#C33796"/>
<path d="M43.1875 63.0001C41.0074 71.5645 34.1476 73.7659 30 72.7502C26.9375 72.0002 22.9961 64.857 26.2959 57.033C29.5958 49.209 33.1709 44.7205 39.7595 45.1165C45.0535 45.4346 44.9489 56.0803 43.1875 63.0001Z" fill="#DC82BF"/>
<path d="M57.7755 36.6321C63.2108 34.7138 67.234 25.1753 68.5662 20.6459C69.3655 15.0507 65.7686 13.8517 63.7703 14.2514C61.7721 14.651 58.9745 15.0507 58.1752 14.2514C57.3759 13.452 52.58 9.85516 49.7824 13.8517C47.5443 17.0489 44.054 17.3154 42.5886 17.049C40.1907 16.5161 35.4747 16.4095 35.7945 20.2462C36.1142 24.0829 33.5297 25.0421 32.1976 25.0421C30.3325 24.7757 26.8422 24.9622 27.8014 27.8397C28.7605 30.7172 35.3948 34.9003 38.5921 36.6321C44.3471 33.1151 53.779 35.1667 57.7755 36.6321Z" fill="#D15CAB"/>
<path fill-rule="evenodd" clip-rule="evenodd" d="M70.4853 21.2101C70.5125 21.1178 70.5329 21.0238 70.5465 20.9286C71.0095 17.6874 70.2431 15.2406 68.5596 13.7174C66.9636 12.2733 64.889 11.988 63.3785 12.2901L63.7707 14.2512C65.769 13.8516 69.3659 15.0506 68.5666 20.6458C67.2344 25.1752 63.2112 34.7136 57.7759 36.632C53.7794 35.1666 44.3475 33.115 38.5925 36.632C35.3952 34.9001 28.7609 30.7171 27.8018 27.8396C26.8426 24.962 30.3329 24.7755 32.198 25.042C33.5301 25.042 36.1146 24.0828 35.7949 20.2461C35.4751 16.4094 40.1911 16.516 42.589 17.0489C44.0544 17.3153 47.5447 17.0488 49.7828 13.8516C52.5804 9.85501 57.3763 13.4519 58.1756 14.2512C58.9749 15.0505 61.7725 14.6509 63.7707 14.2512L63.3785 12.2901C62.4093 12.4839 61.3265 12.6603 60.4284 12.7031C59.976 12.7246 59.6476 12.7079 59.4397 12.6727C59.4296 12.6709 59.4201 12.6692 59.4112 12.6676C58.7162 12.0367 57.1626 10.9007 55.3086 10.3389C54.2623 10.0218 52.9923 9.84882 51.6803 10.1744C50.321 10.5118 49.0994 11.3402 48.1443 12.7046C46.5024 15.0503 43.9506 15.2497 42.9772 15.0864C41.6225 14.791 39.5107 14.5788 37.6541 15.0773C36.6925 15.3355 35.6342 15.8297 34.8483 16.7721C34.0246 17.7599 33.6855 19.0173 33.8018 20.4122C33.9197 21.8276 33.5029 22.3864 33.253 22.619C32.9594 22.8924 32.567 23.0134 32.2958 23.0374C31.2248 22.9046 29.6021 22.8732 28.233 23.3912C27.4767 23.6774 26.5842 24.2149 26.0545 25.2146C25.5051 26.2515 25.5471 27.4003 25.9044 28.472C26.2912 29.6325 27.148 30.6989 28.0139 31.5831C28.92 32.5083 30.0282 33.4242 31.1633 34.2695C33.4357 35.9616 35.9785 37.4906 37.6399 38.3906C38.2668 38.7301 39.027 38.7103 39.6354 38.3385C41.9889 36.9003 45.2857 36.5136 48.7006 36.7585C52.0691 37 55.2426 37.8333 57.0874 38.5097C57.5241 38.6698 58.0029 38.6728 58.4416 38.518C61.8821 37.3036 64.5546 33.8701 66.4397 30.6219C68.3868 27.267 69.7834 23.5967 70.4853 21.2101ZM59.3087 12.6421C59.3084 12.6423 59.3137 12.6445 59.3257 12.648C59.315 12.6436 59.309 12.6419 59.3087 12.6421Z" fill="#4C153A"/>
<path d="M51.875 45C51.875 51.0751 50.7837 56 49.4375 56C48.0913 56 47 51.0751 47 45C47 38.9249 48.0913 34 49.4375 34C50.7837 34 51.875 38.9249 51.875 45Z" fill="#9B2C77"/>
<path d="M42.6608 42.8356C41.2679 47.4874 39.1102 50.9505 37.8415 50.5707C36.5728 50.1908 36.6735 46.1117 38.0665 41.4599C39.4594 36.808 41.6171 33.3449 42.8858 33.7248C44.1544 34.1047 44.0537 38.1837 42.6608 42.8356Z" fill="#9B2C77"/>
<path d="M54.8296 28.9121C54.8984 33.148 54.2649 36.5932 53.4147 36.607C52.5645 36.6208 51.8195 33.1981 51.7507 28.9621C51.6818 24.7261 52.3153 21.2809 53.1655 21.2671C54.0157 21.2533 54.7608 24.6761 54.8296 28.9121Z" fill="#9B2C77"/>
<path d="M43.9512 29.0574C45.9944 32.7687 47.0469 36.1097 46.302 36.5198C45.5571 36.9299 43.2968 34.2538 41.2536 30.5425C39.2104 26.8312 38.1579 23.4902 38.9028 23.0801C39.6477 22.67 41.908 25.3461 43.9512 29.0574Z" fill="#9B2C77"/>
<path d="M62.6113 29.7501C60.7399 33.5509 58.6044 36.3276 57.8415 35.9519C57.0786 35.5763 57.9773 32.1907 59.8487 28.3899C61.7202 24.5891 63.8557 21.8124 64.6186 22.1881C65.3815 22.5637 64.4828 25.9493 62.6113 29.7501Z" fill="#9B2C77"/>
<path d="M60.2308 42.1305C61.4829 46.8222 61.4607 50.9024 60.1812 51.2439C58.9016 51.5854 56.8493 48.0589 55.5971 43.3672C54.3449 38.6755 54.3672 34.5953 55.6467 34.2538C56.9263 33.9123 58.9786 37.4388 60.2308 42.1305Z" fill="#9B2C77"/>
<path d="M37.4755 33.5613C33.5601 35.0673 32 39.4143 32 41.1712C32.8785 40.1672 37.5047 37.552 46.5404 36.9496C55.5761 36.3472 62.743 38.7821 64.5 40.288C63.8976 37.2762 63.0461 34.6767 60.3197 33.5613C53.6935 30.8506 40.9684 32.2179 37.4755 33.5613Z" fill="#F9CA2E"/>
<path fill-rule="evenodd" clip-rule="evenodd" d="M31.2966 43.0435C30.5166 42.7504 30 42.0045 30 41.1713C30 39.8555 30.5312 37.9821 31.5458 36.258C32.5858 34.4904 34.2668 32.6527 36.7576 31.6947M37.4755 33.5614L36.7576 31.6947C38.8166 30.9028 43.1366 30.2159 47.6458 30.0426C52.1598 29.8691 57.3534 30.1871 61.077 31.7103C64.8679 33.2612 65.8634 36.9073 66.4611 39.8959C66.6284 40.7324 66.2467 41.5829 65.5106 42.014C64.7745 42.445 63.846 42.3618 63.1984 41.8066C63.0028 41.639 62.4599 41.3013 61.4705 40.8994C60.5231 40.5146 59.2839 40.118 57.8018 39.7775C54.8381 39.0965 50.9833 38.6579 46.6734 38.9452C42.3228 39.2353 39.0902 40.0063 36.8832 40.7936C35.7781 41.1878 34.9424 41.5817 34.3579 41.9128C33.7416 42.2621 33.5137 42.4801 33.5054 42.488C32.9567 43.115 32.0766 43.3365 31.2966 43.0435M37.4755 33.5614C35.1031 34.4739 33.5954 36.4294 32.7755 38.2198C32.2423 39.3843 32 40.4789 32 41.1713C32.3083 40.8189 33.0783 40.2681 34.3385 39.6754C36.669 38.5795 40.676 37.3406 46.5404 36.9497C53.2666 36.5013 58.9573 37.7359 62.1516 39.0175C63.2484 39.4576 64.0509 39.9032 64.5 40.2881C64.3062 39.3196 64.0868 38.3937 63.7875 37.5461C63.1561 35.7579 62.1694 34.3181 60.3197 33.5614C53.6935 30.8507 40.9684 32.218 37.4755 33.5614Z" fill="#594502"/>
<path fill-rule="evenodd" clip-rule="evenodd" d="M32.3511 39.3063C32.1119 40.0441 32 40.7006 32 41.1712C32.8785 40.1672 37.5047 37.552 46.5404 36.9496C47.015 36.9179 47.4845 36.8947 47.9484 36.8792C46.5962 36.834 45.1799 36.8518 43.7143 36.9495C38.5011 37.2971 34.7557 38.3147 32.3511 39.3063ZM61.3136 38.7031C60.7029 36.3858 59.7277 34.4753 57.4936 33.5613C55.0388 32.5571 51.747 32.1125 48.3976 32.0191C52.6526 31.9066 57.1736 32.2743 60.3197 33.5613C63.0461 34.6767 63.8976 37.2762 64.5 40.288C63.9433 39.8109 62.8437 39.2406 61.3136 38.7031Z" fill="#BC9205"/>
<path fill-rule="evenodd" clip-rule="evenodd" d="M48.4852 35.2827C44.1084 35.2827 39.322 36.5071 37.4971 37.1154C36.9732 37.2901 36.4069 37.0069 36.2322 36.483C36.0576 35.959 36.3407 35.3927 36.8647 35.2181C38.8079 34.5703 43.8186 33.2827 48.4852 33.2827C49.0375 33.2827 49.4852 33.7304 49.4852 34.2827C49.4852 34.835 49.0375 35.2827 48.4852 35.2827Z" fill="#FCE392"/>
</svg>
