<svg width="46" height="36" viewBox="0 0 46 36" fill="none" xmlns="http://www.w3.org/2000/svg">
<path d="M28.1597 1.35905C26.1483 0.018111 23.4664 -0.428869 21.2315 0.465091C18.7732 1.35905 16.5383 2.4765 14.7503 4.04093L9.38658 8.06375H6.7047C2.90537 8.06375 0 10.9691 0 14.7685V21.2497C0 25.049 2.90537 27.9544 6.7047 27.9544H9.38658L14.5268 31.9772C16.5383 33.5416 18.7732 34.6591 21.0081 35.553C21.902 35.7765 22.796 36 23.6899 36C25.2544 36 26.8188 35.553 28.1597 34.6591C30.1711 33.3181 31.2886 31.0832 31.2886 28.6248V7.39328C31.2886 4.93489 30.1711 2.69999 28.1597 1.35905ZM7.82215 23.2611H6.7047C5.36376 23.2611 4.4698 22.3671 4.4698 21.0262V14.545C4.4698 13.204 5.36376 12.3101 6.7047 12.3101H7.82215V23.2611ZM26.8188 28.4013C26.8188 29.2953 26.3718 30.1893 25.4779 30.6362C24.5839 31.3067 23.4664 31.3067 22.5725 31.0832C20.5611 30.4127 18.7732 29.2953 17.2087 28.1778L12.2919 24.3785V11.4161L17.2087 7.61677C18.7732 6.27583 20.5611 5.38187 22.5725 4.7114C23.4664 4.26442 24.5839 4.48791 25.4779 5.15838C26.1483 5.60536 26.8188 6.49932 26.8188 7.39328V28.4013Z" fill="#F9CA2E"/>
<path d="M43.3579 17.8975L44.9223 16.333C45.8162 15.4391 45.8162 14.0981 44.9223 13.2042C44.0283 12.3102 42.6874 12.3102 41.7934 13.2042L40.229 14.7686L38.6646 13.2042C37.7706 12.3102 36.4297 12.3102 35.5357 13.2042C34.6417 14.0981 34.6417 15.4391 35.5357 16.333L37.1001 17.8975L35.5357 19.4619C34.6417 20.3558 34.6417 21.6968 35.5357 22.5907C35.9827 23.0377 36.6532 23.2612 37.1001 23.2612C37.5471 23.2612 38.2176 23.0377 38.6646 22.5907L40.229 21.0263L41.7934 22.5907C42.2404 23.0377 42.9109 23.2612 43.3579 23.2612C43.8048 23.2612 44.4753 23.0377 44.9223 22.5907C45.8162 21.6968 45.8162 20.3558 44.9223 19.4619L43.3579 17.8975Z" fill="#F9CA2E"/>
</svg>
