<svg width="48" height="36" viewBox="0 0 48 36" fill="none" xmlns="http://www.w3.org/2000/svg">
<path d="M6.74658 27.9041H9.44522L14.6176 31.952C16.6416 33.5263 18.8904 34.6507 21.1393 35.5502C22.0388 35.7751 22.9384 36 23.8379 36C25.4121 36 26.9863 35.5502 28.3356 34.6507C30.3596 33.3014 31.4841 31.0525 31.4841 28.5788V7.43947C31.4841 4.96572 30.3596 2.94174 28.3356 1.36754C26.3117 0.0182242 23.613 -0.431548 21.3642 0.467996C18.8904 1.36754 16.6416 2.49197 14.8425 4.06617L9.44522 8.11412H6.74658C2.92352 8.11412 0 11.0376 0 14.8607V21.3824C0 24.9806 2.92352 27.9041 6.74658 27.9041ZM12.3687 11.4874L17.3162 7.66435C18.8904 6.31503 20.6895 5.41549 22.7135 4.74083C23.613 4.29106 24.7375 4.51595 25.637 5.1906C26.3117 5.64038 26.7614 6.53992 26.7614 7.43947V28.5788C26.7614 29.4783 26.3117 30.3778 25.4121 30.8276C24.5126 31.5023 23.3882 31.5023 22.4886 31.2774C20.4646 30.6027 18.6655 29.4783 17.0913 28.3539L12.1438 24.5308V11.4874H12.3687ZM4.49772 14.8607C4.49772 13.5114 5.39727 12.6118 6.74658 12.6118H7.87101V23.6313H6.74658C5.39727 23.6313 4.49772 22.7317 4.49772 21.3824V14.8607Z" fill="#C33796"/>
<path d="M37.556 24.081C39.1302 22.5068 39.8048 20.4828 39.8048 18.009C39.8048 15.5353 38.9053 13.5113 37.556 11.9371C36.6564 11.0376 35.3071 11.0376 34.4076 11.9371C33.508 12.8367 33.508 14.186 34.4076 15.0855C35.0822 15.7602 35.532 16.8846 35.532 18.009C35.532 19.1335 35.0822 20.2579 34.4076 20.9326C33.508 21.8321 33.508 23.1814 34.4076 24.081C34.8573 24.5307 35.3071 24.7556 35.9818 24.7556C36.6564 24.7556 37.1062 24.5307 37.556 24.081Z" fill="#C33796"/>
<path d="M39.1307 4.74096C38.0063 4.29119 36.6569 4.74096 36.2072 5.86539C35.7574 6.98982 36.2072 8.33914 37.3316 8.78891C40.48 10.1382 42.7289 13.7364 42.7289 18.0092C42.7289 22.2821 40.48 25.8803 37.3316 27.2296C36.2072 27.6793 35.5325 29.0287 36.2072 30.1531C36.6569 31.0526 37.3316 31.5024 38.2311 31.5024C38.456 31.5024 38.9058 31.5024 39.1307 31.2775C43.8533 29.2535 47.2266 24.0812 47.2266 18.0092C47.2266 11.9373 43.8533 6.76493 39.1307 4.74096Z" fill="#C33796"/>
</svg>
